<svg version="1.0" xmlns="http://www.w3.org/2000/svg" width="66.667" height="66.667" viewBox="0 0 50 50"><g fill="red"><path d="M12 25c0 12 .4 19 1 19s1-7 1-19-.4-19-1-19-1 7-1 19zM36 25c0 12 .4 19 1 19s1-7 1-19-.4-19-1-19-1 7-1 19zM6 25c0 6 .4 10 1 10s1-4 1-10-.4-10-1-10-1 4-1 10zM42 25c0 6 .4 10 1 10s1-4 1-10-.4-10-1-10-1 4-1 10zM18 25c0 5.3.4 9 1 9s1-3.7 1-9-.4-9-1-9-1 3.7-1 9zM30 25c0 5.3.4 9 1 9s1-3.7 1-9-.4-9-1-9-1 3.7-1 9zM0 25c0 2.2.5 4 1 4 .6 0 1-1.8 1-4s-.4-4-1-4c-.5 0-1 1.8-1 4zM24 25c0 2.2.5 4 1 4 .6 0 1-1.8 1-4s-.4-4-1-4c-.5 0-1 1.8-1 4zM48 25c0 2.2.5 4 1 4 .6 0 1-1.8 1-4s-.4-4-1-4c-.5 0-1 1.8-1 4z"/></g></svg>